<?xml version="1.0" encoding="utf-8"?>
<svg id="visual" width="1920" height="1080" version="1.1" xmlns="http://www.w3.org/2000/svg">
  <rect y="713.394" width="1920" height="366.606" fill="#001220" style=""/>
  <path d="M0 796L40 779.3C80 762.7 160 729.3 240 723.5C320 717.7 400 739.3 480 747C560 754.7 640 748.3 720 738.2C800 728 880 714 960 723.8C1040 733.7 1120 767.3 1200 767.8C1280 768.3 1360 735.7 1440 727.7C1520 719.7 1600 736.3 1680 740.5C1760 744.7 1840 736.3 1880 732.2L1920 728L1920 1081L1880 1081C1840 1081 1760 1081 1680 1081C1600 1081 1520 1081 1440 1081C1360 1081 1280 1081 1200 1081C1120 1081 1040 1081 960 1081C880 1081 800 1081 720 1081C640 1081 560 1081 480 1081C400 1081 320 1081 240 1081C160 1081 80 1081 40 1081L0 1081Z" fill="#464646"/>
  <path d="M0 769L40 783.5C80 798 160 827 240 838.3C320 849.7 400 843.3 480 830.3C560 817.3 640 797.7 720 788.3C800 779 880 780 960 790.8C1040 801.7 1120 822.3 1200 827.7C1280 833 1360 823 1440 813.5C1520 804 1600 795 1680 792.7C1760 790.3 1840 794.7 1880 796.8L1920 799L1920 1081L1880 1081C1840 1081 1760 1081 1680 1081C1600 1081 1520 1081 1440 1081C1360 1081 1280 1081 1200 1081C1120 1081 1040 1081 960 1081C880 1081 800 1081 720 1081C640 1081 560 1081 480 1081C400 1081 320 1081 240 1081C160 1081 80 1081 40 1081L0 1081Z" fill="#666767"/>
  <path d="M0 850L40 861C80 872 160 894 240 903.7C320 913.3 400 910.7 480 905C560 899.3 640 890.7 720 891C800 891.3 880 900.7 960 903C1040 905.3 1120 900.7 1200 894.3C1280 888 1360 880 1440 876.7C1520 873.3 1600 874.7 1680 870C1760 865.3 1840 854.7 1880 849.3L1920 844L1920 1081L1880 1081C1840 1081 1760 1081 1680 1081C1600 1081 1520 1081 1440 1081C1360 1081 1280 1081 1200 1081C1120 1081 1040 1081 960 1081C880 1081 800 1081 720 1081C640 1081 560 1081 480 1081C400 1081 320 1081 240 1081C160 1081 80 1081 40 1081L0 1081Z" fill="#88898a"/>
  <path d="M0 979L40 981.7C80 984.3 160 989.7 240 988.7C320 987.7 400 980.3 480 970.5C560 960.7 640 948.3 720 951.3C800 954.3 880 972.7 960 968.3C1040 964 1120 937 1200 921.5C1280 906 1360 902 1440 901.3C1520 900.7 1600 903.3 1680 909.3C1760 915.3 1840 924.7 1880 929.3L1920 934L1920 1081L1880 1081C1840 1081 1760 1081 1680 1081C1600 1081 1520 1081 1440 1081C1360 1081 1280 1081 1200 1081C1120 1081 1040 1081 960 1081C880 1081 800 1081 720 1081C640 1081 560 1081 480 1081C400 1081 320 1081 240 1081C160 1081 80 1081 40 1081L0 1081Z" fill="#acadaf"/>
  <path d="M0 984L40 995C80 1006 160 1028 240 1029.8C320 1031.7 400 1013.3 480 1012C560 1010.7 640 1026.3 720 1024C800 1021.7 880 1001.3 960 996.2C1040 991 1120 1001 1200 1010.2C1280 1019.3 1360 1027.7 1440 1025C1520 1022.3 1600 1008.7 1680 1005.3C1760 1002 1840 1009 1880 1012.5L1920 1016L1920 1081L1880 1081C1840 1081 1760 1081 1680 1081C1600 1081 1520 1081 1440 1081C1360 1081 1280 1081 1200 1081C1120 1081 1040 1081 960 1081C880 1081 800 1081 720 1081C640 1081 560 1081 480 1081C400 1081 320 1081 240 1081C160 1081 80 1081 40 1081L0 1081Z" fill="#d1d3d5"/>
</svg>