<?xml version="1.0" encoding="utf-8"?>
<svg viewBox="0 816.596 1920 263.404" xmlns="http://www.w3.org/2000/svg">
  <rect width="1920" height="263.404" fill="#000000" y="816.596" style=""/>
  <path d="M0 914L80 903C160 892 320 870 480 861.2C640 852.3 800 856.7 960 861.8C1120 867 1280 873 1440 877C1600 881 1760 883 1840 884L1920 885L1920 1081L1840 1081C1760 1081 1600 1081 1440 1081C1280 1081 1120 1081 960 1081C800 1081 640 1081 480 1081C320 1081 160 1081 80 1081L0 1081Z" fill="#767676"/>
  <path d="M0 934L80 931.8C160 929.7 320 925.3 480 924.3C640 923.3 800 925.7 960 922.2C1120 918.7 1280 909.3 1440 901.3C1600 893.3 1760 886.7 1840 883.3L1920 880L1920 1081L1840 1081C1760 1081 1600 1081 1440 1081C1280 1081 1120 1081 960 1081C800 1081 640 1081 480 1081C320 1081 160 1081 80 1081L0 1081Z" fill="#969696"/>
  <path d="M0 937L80 944.5C160 952 320 967 480 969.5C640 972 800 962 960 950.7C1120 939.3 1280 926.7 1440 920.7C1600 914.7 1760 915.3 1840 915.7L1920 916L1920 1081L1840 1081C1760 1081 1600 1081 1440 1081C1280 1081 1120 1081 960 1081C800 1081 640 1081 480 1081C320 1081 160 1081 80 1081L0 1081Z" fill="#b8b8b8"/>
  <path d="M0 997L80 994.2C160 991.3 320 985.7 480 983.5C640 981.3 800 982.7 960 986.8C1120 991 1280 998 1440 999.8C1600 1001.7 1760 998.3 1840 996.7L1920 995L1920 1081L1840 1081C1760 1081 1600 1081 1440 1081C1280 1081 1120 1081 960 1081C800 1081 640 1081 480 1081C320 1081 160 1081 80 1081L0 1081Z" fill="#dbdbdb"/>
  <path d="M0 1022L80 1025.8C160 1029.7 320 1037.3 480 1035.3C640 1033.3 800 1021.7 960 1014.3C1120 1007 1280 1004 1440 1007.2C1600 1010.3 1760 1019.7 1840 1024.3L1920 1029L1920 1081L1840 1081C1760 1081 1600 1081 1440 1081C1280 1081 1120 1081 960 1081C800 1081 640 1081 480 1081C320 1081 160 1081 80 1081L0 1081Z" fill="#ffffff"/>
</svg>