<?xml version="1.0" encoding="utf-8"?>
<svg viewBox="0 732.631 1920 287.369" xmlns="http://www.w3.org/2000/svg">
  <g>
    <rect width="1920" height="1020" fill="#000000"/>
  </g>
  <path d="M0 704L45.7 706.8C91.3 709.7 182.7 715.3 274.2 728.3C365.7 741.3 457.3 761.7 548.8 767.2C640.3 772.7 731.7 763.3 823 762.2C914.3 761 1005.7 768 1097 774.3C1188.3 780.7 1279.7 786.3 1371.2 775.8C1462.7 765.3 1554.3 738.7 1645.8 737.5C1737.3 736.3 1828.7 760.7 1874.3 772.8L1920 785L1920 1021L1874.3 1021C1828.7 1021 1737.3 1021 1645.8 1021C1554.3 1021 1462.7 1021 1371.2 1021C1279.7 1021 1188.3 1021 1097 1021C1005.7 1021 914.3 1021 823 1021C731.7 1021 640.3 1021 548.8 1021C457.3 1021 365.7 1021 274.2 1021C182.7 1021 91.3 1021 45.7 1021L0 1021Z" fill="#000000"/>
  <path d="M0 742L45.7 753.2C91.3 764.3 182.7 786.7 274.2 785.2C365.7 783.7 457.3 758.3 548.8 754.5C640.3 750.7 731.7 768.3 823 773.5C914.3 778.7 1005.7 771.3 1097 770.3C1188.3 769.3 1279.7 774.7 1371.2 772.3C1462.7 770 1554.3 760 1645.8 759.8C1737.3 759.7 1828.7 769.3 1874.3 774.2L1920 779L1920 1021L1874.3 1021C1828.7 1021 1737.3 1021 1645.8 1021C1554.3 1021 1462.7 1021 1371.2 1021C1279.7 1021 1188.3 1021 1097 1021C1005.7 1021 914.3 1021 823 1021C731.7 1021 640.3 1021 548.8 1021C457.3 1021 365.7 1021 274.2 1021C182.7 1021 91.3 1021 45.7 1021L0 1021Z" fill="#222426"/>
  <path d="M0 864L45.7 857.7C91.3 851.3 182.7 838.7 274.2 822.2C365.7 805.7 457.3 785.3 548.8 781.2C640.3 777 731.7 789 823 805.5C914.3 822 1005.7 843 1097 843.7C1188.3 844.3 1279.7 824.7 1371.2 808.3C1462.7 792 1554.3 779 1645.8 773.5C1737.3 768 1828.7 770 1874.3 771L1920 772L1920 1021L1874.3 1021C1828.7 1021 1737.3 1021 1645.8 1021C1554.3 1021 1462.7 1021 1371.2 1021C1279.7 1021 1188.3 1021 1097 1021C1005.7 1021 914.3 1021 823 1021C731.7 1021 640.3 1021 548.8 1021C457.3 1021 365.7 1021 274.2 1021C182.7 1021 91.3 1021 45.7 1021L0 1021Z" fill="#414345"/>
  <path d="M0 818L45.7 827C91.3 836 182.7 854 274.2 861C365.7 868 457.3 864 548.8 865.5C640.3 867 731.7 874 823 877.7C914.3 881.3 1005.7 881.7 1097 878.2C1188.3 874.7 1279.7 867.3 1371.2 864C1462.7 860.7 1554.3 861.3 1645.8 867.2C1737.3 873 1828.7 884 1874.3 889.5L1920 895L1920 1021L1874.3 1021C1828.7 1021 1737.3 1021 1645.8 1021C1554.3 1021 1462.7 1021 1371.2 1021C1279.7 1021 1188.3 1021 1097 1021C1005.7 1021 914.3 1021 823 1021C731.7 1021 640.3 1021 548.8 1021C457.3 1021 365.7 1021 274.2 1021C182.7 1021 91.3 1021 45.7 1021L0 1021Z" fill="#626466"/>
  <path d="M0 904L45.7 895.7C91.3 887.3 182.7 870.7 274.2 863.8C365.7 857 457.3 860 548.8 865.3C640.3 870.7 731.7 878.3 823 879.8C914.3 881.3 1005.7 876.7 1097 881C1188.3 885.3 1279.7 898.7 1371.2 896C1462.7 893.3 1554.3 874.7 1645.8 870.8C1737.3 867 1828.7 878 1874.3 883.5L1920 889L1920 1021L1874.3 1021C1828.7 1021 1737.3 1021 1645.8 1021C1554.3 1021 1462.7 1021 1371.2 1021C1279.7 1021 1188.3 1021 1097 1021C1005.7 1021 914.3 1021 823 1021C731.7 1021 640.3 1021 548.8 1021C457.3 1021 365.7 1021 274.2 1021C182.7 1021 91.3 1021 45.7 1021L0 1021Z" fill="#858789"/>
  <path d="M0 942L45.7 944.7C91.3 947.3 182.7 952.7 274.2 950.3C365.7 948 457.3 938 548.8 928.2C640.3 918.3 731.7 908.7 823 905C914.3 901.3 1005.7 903.7 1097 912.5C1188.3 921.3 1279.7 936.7 1371.2 937.7C1462.7 938.7 1554.3 925.3 1645.8 923.5C1737.3 921.7 1828.7 931.3 1874.3 936.2L1920 941L1920 1021L1874.3 1021C1828.7 1021 1737.3 1021 1645.8 1021C1554.3 1021 1462.7 1021 1371.2 1021C1279.7 1021 1188.3 1021 1097 1021C1005.7 1021 914.3 1021 823 1021C731.7 1021 640.3 1021 548.8 1021C457.3 1021 365.7 1021 274.2 1021C182.7 1021 91.3 1021 45.7 1021L0 1021Z" fill="#aaacae"/>
  <path d="M0 979L45.7 975C91.3 971 182.7 963 274.2 962.7C365.7 962.3 457.3 969.7 548.8 968.7C640.3 967.7 731.7 958.3 823 959C914.3 959.7 1005.7 970.3 1097 971.8C1188.3 973.3 1279.7 965.7 1371.2 967.3C1462.7 969 1554.3 980 1645.8 984.8C1737.3 989.7 1828.7 988.3 1874.3 987.7L1920 987L1920 1021L1874.3 1021C1828.7 1021 1737.3 1021 1645.8 1021C1554.3 1021 1462.7 1021 1371.2 1021C1279.7 1021 1188.3 1021 1097 1021C1005.7 1021 914.3 1021 823 1021C731.7 1021 640.3 1021 548.8 1021C457.3 1021 365.7 1021 274.2 1021C182.7 1021 91.3 1021 45.7 1021L0 1021Z" fill="#d1d3d5"/>
</svg>